<svg xmlns="http://www.w3.org/2000/svg" viewBox="0 0 1920 1080">
  <defs>
    <linearGradient id="bgGradient" x1="0%" y1="0%" x2="100%" y2="100%">
      <stop offset="0%" style="stop-color:#1e3a8a;stop-opacity:0.9"/>
      <stop offset="50%" style="stop-color:#1e40af;stop-opacity:0.7"/>
      <stop offset="100%" style="stop-color:#f97316;stop-opacity:0.8"/>
    </linearGradient>
    
    <pattern id="dots" x="0" y="0" width="100" height="100" patternUnits="userSpaceOnUse">
      <circle cx="50" cy="50" r="2" fill="rgba(255,255,255,0.1)"/>
    </pattern>
    
    <filter id="glow">
      <feGaussianBlur stdDeviation="3" result="coloredBlur"/>
      <feMerge> 
        <feMergeNode in="coloredBlur"/>
        <feMergeNode in="SourceGraphic"/>
      </feMerge>
    </filter>
  </defs>
  
  <!-- Background -->
  <rect width="100%" height="100%" fill="url(#bgGradient)"/>
  
  <!-- Dot pattern -->
  <rect width="100%" height="100%" fill="url(#dots)"/>
  
  <!-- Floating geometric shapes -->
  <g opacity="0.3">
    <!-- Large circles -->
    <circle cx="200" cy="200" r="80" fill="none" stroke="rgba(255,255,255,0.2)" stroke-width="2"/>
    <circle cx="1600" cy="300" r="120" fill="none" stroke="rgba(249,115,22,0.3)" stroke-width="3"/>
    <circle cx="300" cy="800" r="60" fill="rgba(255,255,255,0.1)"/>
    <circle cx="1400" cy="700" r="90" fill="rgba(249,115,22,0.1)"/>
    
    <!-- Triangles -->
    <polygon points="800,100 850,200 750,200" fill="none" stroke="rgba(255,255,255,0.2)" stroke-width="2"/>
    <polygon points="1200,600 1300,750 1100,750" fill="rgba(249,115,22,0.1)"/>
    
    <!-- Rectangles -->
    <rect x="100" y="500" width="80" height="80" fill="none" stroke="rgba(255,255,255,0.2)" stroke-width="2" transform="rotate(45 140 540)"/>
    <rect x="1500" y="150" width="60" height="60" fill="rgba(249,115,22,0.1)" transform="rotate(30 1530 180)"/>
    
    <!-- Lines -->
    <line x1="0" y1="400" x2="300" y2="450" stroke="rgba(255,255,255,0.1)" stroke-width="2"/>
    <line x1="1620" y1="500" x2="1920" y2="550" stroke="rgba(249,115,22,0.2)" stroke-width="3"/>
    <line x1="600" y1="0" x2="650" y2="200" stroke="rgba(255,255,255,0.1)" stroke-width="1"/>
    
    <!-- Hexagons -->
    <polygon points="1000,300 1030,320 1030,360 1000,380 970,360 970,320" fill="none" stroke="rgba(255,255,255,0.2)" stroke-width="2"/>
    <polygon points="500,600 540,625 540,675 500,700 460,675 460,625" fill="rgba(249,115,22,0.1)"/>
  </g>
  
  <!-- Glowing particles -->
  <g filter="url(#glow)">
    <circle cx="150" cy="150" r="3" fill="rgba(255,255,255,0.6)">
      <animate attributeName="opacity" values="0.3;1;0.3" dur="3s" repeatCount="indefinite"/>
    </circle>
    <circle cx="1700" cy="200" r="2" fill="rgba(249,115,22,0.8)">
      <animate attributeName="opacity" values="0.5;1;0.5" dur="2s" repeatCount="indefinite"/>
    </circle>
    <circle cx="400" cy="900" r="4" fill="rgba(255,255,255,0.5)">
      <animate attributeName="opacity" values="0.2;0.8;0.2" dur="4s" repeatCount="indefinite"/>
    </circle>
    <circle cx="1300" cy="800" r="2" fill="rgba(249,115,22,0.7)">
      <animate attributeName="opacity" values="0.4;1;0.4" dur="2.5s" repeatCount="indefinite"/>
    </circle>
  </g>
  
  <!-- Animated waves -->
  <g opacity="0.1">
    <path d="M0,600 Q480,550 960,600 T1920,600 L1920,1080 L0,1080 Z" fill="rgba(255,255,255,0.3)">
      <animateTransform attributeName="transform" type="translate" values="0,0;50,0;0,0" dur="8s" repeatCount="indefinite"/>
    </path>
    <path d="M0,700 Q480,650 960,700 T1920,700 L1920,1080 L0,1080 Z" fill="rgba(249,115,22,0.2)">
      <animateTransform attributeName="transform" type="translate" values="0,0;-30,0;0,0" dur="6s" repeatCount="indefinite"/>
    </path>
  </g>
</svg>